:SAMPLES-PER-SECOND 30
:FULLY-SPECIFIED
:DEGREES
114
root  10.1249 39.0645 -4.84007 4.60698 -11.1485 1.06376
RightUpLeg  -17.6013 -19.8571 -3.37324
RightLeg  30.5469 4.24644 2.472
RightFoot  -9.2764 -0.207807 8.09092
RightToes  -3.0268e-009 0 -3.6325e-017
Spine  16.1107 0.435326 -7.16551
Spine1  3.22169 -2.00739 7.36082
HEad  -15.6944 -43.8499 11.9043
LeftShoulder1  0.22356 2.885 -30.0094
LeftArm  9.1407 3.97822 -39.4087
LeftForeArm  31.9016 -51.6539 -11.6651
LeftHand  -0.0183704 7.13646 1.29684
RightShoulder  -1.14906 -6.57997 30.8239
RightArm  10.4892 -2.97363 36.314
RightForeArm  17.3029 47.8026 11.1098
RightHand  -0.278658 3.90062 -3.7464
LeftUpLeg  -18.5576 -8.86092 -3.65387
LeftLeg  20.261 -7.30837 -2.65363
LeftFoot  -6.73197 -0.166776 6.40145
LeftToes  2.52475e-009 -1.26109e-010 3.16044e-011
115
root  9.59846 38.9687 -4.87068 4.25603 -12.7195 0.837593
RightUpLeg  -19.6718 -21.2193 -3.21189
RightLeg  35.6262 8.21253 6.07821
RightFoot  -8.19185 -0.373156 11.3968
RightToes  -3.0268e-009 0 -3.6325e-017
Spine  15.9617 0.709784 -8.44716
Spine1  3.42547 -1.88997 7.52502
HEad  -14.9588 -42.6106 11.601
LeftShoulder1  0.175601 3.01817 -30.0438
LeftArm  8.40487 4.45496 -38.8899
LeftForeArm  32.458 -54.1596 -12.8625
LeftHand  -0.0103954 6.90602 1.79298
RightShoulder  -1.08698 -6.45589 30.2838
RightArm  10.8442 -1.90069 37.9331
RightForeArm  16.5937 46.6322 10.6866
RightHand  -0.323061 3.95698 -4.27949
LeftUpLeg  -18.6814 -8.5827 -2.36648
LeftLeg  21.5171 -5.466 -2.05187
LeftFoot  -7.35307 -0.103108 4.18872
LeftToes  2.52475e-009 -1.26109e-010 3.16044e-011
116
root  9.12538 38.7137 -4.95305 3.5888 -14.1274 1.34046
RightUpLeg  -22.9992 -21.8421 -4.99957
RightLeg  43.9972 13.2695 13.1908
RightFoot  -6.26015 -0.84672 17.6952
RightToes  -3.0268e-009 0 -3.6325e-017
Spine  16.3566 0.709065 -10.3063
Spine1  3.35228 -2.09511 7.36113
HEad  -14.501 -40.6921 11.4182
LeftShoulder1  0.101061 3.22604 -30.2612
LeftArm  7.35368 4.61453 -38.1525
LeftForeArm  33.2262 -55.8398 -13.736
LeftHand  -0.0297946 6.16513 0.566397
RightShoulder  -1.03233 -6.34292 29.8184
RightArm  10.738 -1.20517 39.6034
RightForeArm  17.0665 45.3909 10.1634
RightHand  -0.297443 4.10175 -3.90677
LeftUpLeg  -19.1124 -5.92195 -2.22325
LeftLeg  23.8634 -6.68739 -2.87442
LeftFoot  -8.55028 -0.0323023 3.49217
LeftToes  2.52475e-009 -1.26109e-010 3.16044e-011
117
root  8.67646 38.2851 -5.06675 2.50146 -15.2731 2.27347
RightUpLeg  -25.784 -20.0085 -8.84296
RightLeg  52.7599 18.7123 24.1475
RightFoot  -4.91713 -1.58452 27.3355
RightToes  -3.0268e-009 0 -3.6325e-017
Spine  17.4072 0.700574 -12.1017
Spine1  2.88647 -2.23419 6.55584
HEad  -14.1244 -39.9785 11.3979
LeftShoulder1  0.0910214 3.25629 -30.6415
LeftArm  6.37005 4.60262 -37.6924
LeftForeArm  34.0747 -56.9532 -14.3221
LeftHand  -0.0252219 6.34828 0.994594
RightShoulder  -1.0503 -6.38689 29.8749
RightArm  10.434 -1.579 39.9506
RightForeArm  17.4008 45.3651 10.1309
RightHand  -0.287254 3.91128 -3.84874
LeftUpLeg  -20.1468 -6.00433 -2.5595
LeftLeg  27.8631 -5.08333 -2.53972
LeftFoot  -10.1265 0.0190765 4.0013
LeftToes  2.52475e-009 -1.26109e-010 3.16044e-011
118
root  8.15315 37.8054 -5.20379 1.83385 -15.7863 2.58878
RightUpLeg  -27.7439 -16.1754 -12.3174
RightLeg  58.2576 21.1952 31.9357
RightFoot  -5.36893 -1.75575 31.9955
RightToes  -3.0268e-009 0 -3.6325e-017
Spine  18.4627 0.651157 -13.0581
Spine1  2.60454 -2.38222 5.82678
HEad  -14.6492 -39.4094 12.1423
LeftShoulder1  0.0679528 3.31844 -30.5636
LeftArm  5.93669 3.48251 -38.4082
LeftForeArm  34.8575 -56.7007 -14.0989
LeftHand  -0.0259559 6.7805 0.83071
RightShoulder  -1.14694 -6.58652 30.6855
RightArm  10.3872 -2.05946 39.2886
RightForeArm  16.8883 44.7341 9.93367
RightHand  -0.344113 4.10423 -4.49069
LeftUpLeg  -21.7447 -6.60814 -2.05678
LeftLeg  32.389 -3.68652 -2.14641
LeftFoot  -12.1359 0.0998937 4.06981
LeftToes  2.52475e-009 -1.26109e-010 3.16044e-011
119
root  7.67456 37.5565 -5.31732 1.64645 -15.888 1.64228
RightUpLeg  -28.6149 -12.6098 -14.878
RightLeg  57.3927 17.1609 26.2542
RightFoot  -6.76233 -1.13011 26.713
RightToes  -3.0268e-009 0 -3.6325e-017
Spine  19.4544 0.572643 -12.5807
Spine1  2.93401 -2.76889 6.70725
HEad  -16.6806 -37.5348 12.6291
LeftShoulder1  0.00054229 3.50253 -30.8185
LeftArm  5.4647 2.00882 -39.6388
LeftForeArm  34.8376 -56.1503 -13.7695
LeftHand  -0.0245014 7.02612 0.925997
RightShoulder  -1.13448 -6.54793 30.7372
RightArm  10.4647 -2.47954 38.6943
RightForeArm  15.8608 42.6727 9.26884
RightHand  -0.342724 4.98266 -4.13209
LeftUpLeg  -22.6086 -6.88084 -0.245806
LeftLeg  35.1568 -3.32268 -2.12962
LeftFoot  -13.5677 0.148064 3.4006
LeftToes  2.52475e-009 -1.26109e-010 3.16044e-011
120
root  7.19037 37.4406 -5.40815 1.58534 -16.1133 0.154364
RightUpLeg  -28.3165 -7.99781 -16.9172
RightLeg  52.7264 10.977 14.7872
RightFoot  -6.6611 -0.812306 18.5812
RightToes  -3.0268e-009 0 -3.6325e-017
Spine  20.3829 0.653527 -11.5919
Spine1  3.36292 -3.01291 8.19776
HEad  -17.5362 -37.0277 13.2463
LeftShoulder1  0.0129225 3.46728 -30.7622
LeftArm  5.05427 1.28645 -41.2009
LeftForeArm  34.5454 -56.0849 -13.7581
LeftHand  -0.013548 6.98353 1.61184
RightShoulder  -1.1867 -6.66235 31.0506
RightArm  11.773 -2.85199 37.841
RightForeArm  14.3068 39.5102 8.34422
RightHand  -0.354574 4.52148 -4.43445
LeftUpLeg  -22.8419 -6.81694 2.1138
LeftLeg  36.8808 -3.16015 -2.15157
LeftFoot  -14.6193 0.168313 2.82933
LeftToes  2.52475e-009 -1.26109e-010 3.16044e-011
121
root  6.72125 37.2859 -5.52796 2.14617 -15.9727 -0.625408
RightUpLeg  -28.2256 -4.1309 -19.2048
RightLeg  47.7942 4.08666 4.50798
RightFoot  -5.66288 -0.606518 11.5651
RightToes  -3.0268e-009 0 -3.6325e-017
Spine  21.3356 0.361117 -10.6478
Spine1  2.57455 -3.33171 8.90272
HEad  -17.8827 -36.1073 13.7737
LeftShoulder1  0.112986 3.19221 -30.3798
LeftArm  5.20873 1.17394 -42.4095
LeftForeArm  35.4155 -56.5184 -13.9373
LeftHand  -0.0108408 7.48323 1.53627
RightShoulder  -1.19002 -6.62807 31.5603
RightArm  13.3564 -3.90439 37.2418
RightForeArm  12.8737 35.3485 7.2049
RightHand  -0.357931 4.75433 -4.38347
LeftUpLeg  -23.9124 -7.37133 3.82942
LeftLeg  38.3028 -2.72665 -1.92459
LeftFoot  -15.6076 0.173856 2.13426
LeftToes  2.52475e-009 -1.26109e-010 3.16044e-011
122
root  6.13989 37.0392 -5.67123 2.46377 -16.3135 -0.722661
RightUpLeg  -28.0496 -1.74014 -21.204
RightLeg  43.6492 -1.43674 -1.81902
RightFoot  -2.65599 -0.687492 8.73546
RightToes  -3.0268e-009 0 -3.6325e-017
Spine  21.8951 0.509197 -11.0706
Spine1  2.52123 -3.57262 10.2518
HEad  -18.5693 -36.1389 14.1404
LeftShoulder1  -0.0277179 3.57861 -31.5173
LeftArm  5.81763 0.105885 -42.6519
LeftForeArm  35.3963 -57.2931 -14.4136
LeftHand  -0.0205509 6.84607 1.21215
RightShoulder  -1.20534 -6.68979 31.3027
RightArm  15.0397 -5.17591 37.0574
RightForeArm  11.2754 31.7522 6.34923
RightHand  -0.390081 4.50689 -4.86998
LeftUpLeg  -24.9993 -6.1634 5.02148
LeftLeg  40.0787 -3.35652 -2.63569
LeftFoot  -16.4926 0.186227 1.93858
LeftToes  2.52475e-009 -1.26109e-010 3.16044e-011
123
root  5.49012 36.7425 -5.81607 2.44327 -16.7428 -0.189423
RightUpLeg  -27.8284 -1.87049 -22.5061
RightLeg  40.9425 -3.12669 -3.2086
RightFoot  -0.114513 -0.754359 7.64358
RightToes  -3.0268e-009 0 -3.6325e-017
Spine  22.1638 0.361931 -11.3835
Spine1  2.96478 -3.81794 10.0453
HEad  -20.0764 -35.1963 15.1592
LeftShoulder1  -0.0272278 3.57536 -31.6283
LeftArm  6.44261 -0.659444 -43.3171
LeftForeArm  34.4367 -57.7566 -14.8011
LeftHand  -0.0199483 6.54884 1.30507
RightShoulder  -1.26109 -6.77825 31.9907
RightArm  17.4996 -6.38103 36.7436
RightForeArm  7.32716 28.551 5.7862
RightHand  -0.637434 3.88628 -8.24494
LeftUpLeg  -25.8121 -4.86977 5.67708
LeftLeg  41.7713 -4.01123 -3.42787
LeftFoot  -17.4908 0.165921 1.15065
LeftToes  2.52475e-009 -1.26109e-010 3.16044e-011
124
root  4.74249 36.477 -5.93107 2.06553 -17.523 1.02147
RightUpLeg  -27.5852 -4.98192 -22.7192
RightLeg  39.8794 -2.92306 -2.89022
RightFoot  1.77424 -0.91246 8.07396
RightToes  -3.0268e-009 0 -3.6325e-017
Spine  22.3067 0.617163 -12.7452
Spine1  3.36266 -3.98041 10.5996
HEad  -20.9639 -34.844 15.5931
LeftShoulder1  -0.0842418 3.72253 -32.4557
LeftArm  7.19948 -1.33716 -44.3353
LeftForeArm  34.4524 -57.779 -14.815
LeftHand  -0.0088474 7.31575 1.72834
RightShoulder  -1.22661 -6.69841 31.866
RightArm  19.8517 -8.48504 36.7773
RightForeArm  6.34419 26.1024 5.26946
RightHand  -0.512234 4.25385 -6.35325
LeftUpLeg  -25.8774 -4.43645 5.81791
LeftLeg  42.6947 -3.89082 -3.43414
LeftFoot  -18.5083 0.0945846 -0.270586
LeftToes  2.52475e-009 -1.26109e-010 3.16044e-011
125
root  3.85402 36.2299 -6.02906 1.7086 -18.6128 2.36391
RightUpLeg  -27.3129 -9.64314 -21.3771
RightLeg  40.2595 -4.85516 -4.67152
RightFoot  -1.66273 -0.960122 11.2581
RightToes  -3.0268e-009 0 -3.6325e-017
Spine  22.1999 0.639769 -14.0385
Spine1  3.45566 -4.12897 10.3155
HEad  -21.7939 -34.6474 15.9903
LeftShoulder1  -0.091986 3.74067 -32.7249
LeftArm  7.46945 -1.12969 -45.4555
LeftForeArm  36.0583 -57.7424 -14.6364
LeftHand  -0.0266521 6.54038 0.796182
RightShoulder  -1.33978 -6.93409 32.5334
RightArm  23.3947 -10.3694 36.9008
RightForeArm  7.22755 24.1689 4.80663
RightHand  -0.190069 3.64897 -2.73903
LeftUpLeg  -25.6297 -4.13486 6.08455
LeftLeg  43.2506 -3.66834 -3.28233
LeftFoot  -19.4713 0.00897702 -1.50543
LeftToes  2.52475e-009 -1.26109e-010 3.16044e-011
